<mxfile host="app.diagrams.net" agent="Mozilla/5.0 (Macintosh; Intel Mac OS X 10_15_7) AppleWebKit/537.36 (KHTML, like Gecko) Chrome/131.0.0.0 Safari/537.36" version="26.0.9">
  <diagram name="Página-1" id="sCILooPswXd_aSw-t-Cp">
    <mxGraphModel dx="3841" dy="2553" grid="0" gridSize="10" guides="1" tooltips="1" connect="1" arrows="1" fold="1" page="1" pageScale="1" pageWidth="827" pageHeight="1169" math="0" shadow="0">
      <root>
        <mxCell id="0" />
        <mxCell id="1" parent="0" />
        <mxCell id="jUtSfc8thpbf7o3x55cu-1" value="&lt;font style=&quot;font-size: 12px;&quot;&gt;Platform Start&lt;/font&gt;" style="rounded=1;whiteSpace=wrap;html=1;shadow=0;labelBackgroundColor=none;strokeWidth=1;fontFamily=Verdana;fontSize=8;align=center;fillColor=#d5e8d4;strokeColor=#82b366;" vertex="1" parent="1">
          <mxGeometry x="199.99" y="-780" width="140" height="60" as="geometry" />
        </mxCell>
        <mxCell id="jUtSfc8thpbf7o3x55cu-2" value="&lt;font style=&quot;font-size: 12px;&quot;&gt;Select User (Child/Parent)&lt;/font&gt;" style="rounded=1;whiteSpace=wrap;html=1;shadow=0;labelBackgroundColor=none;strokeWidth=1;fontFamily=Verdana;fontSize=8;align=center;fillColor=#d5e8d4;strokeColor=#82b366;" vertex="1" parent="1">
          <mxGeometry x="199.99" y="-670" width="140" height="60" as="geometry" />
        </mxCell>
        <mxCell id="jUtSfc8thpbf7o3x55cu-3" value="&lt;font style=&quot;font-size: 12px;&quot;&gt;Log In or Create Account&lt;/font&gt;" style="rounded=1;whiteSpace=wrap;html=1;shadow=0;labelBackgroundColor=none;strokeWidth=1;fontFamily=Verdana;fontSize=8;align=center;fillColor=#d5e8d4;strokeColor=#82b366;" vertex="1" parent="1">
          <mxGeometry x="199.99" y="-560" width="140" height="60" as="geometry" />
        </mxCell>
        <mxCell id="jUtSfc8thpbf7o3x55cu-4" value="&lt;font style=&quot;font-size: 12px;&quot;&gt;Child Selects a Story&lt;/font&gt;" style="rounded=1;whiteSpace=wrap;html=1;shadow=0;labelBackgroundColor=none;strokeWidth=1;fontFamily=Verdana;fontSize=8;align=center;fillColor=#d5e8d4;strokeColor=#82b366;" vertex="1" parent="1">
          <mxGeometry x="199.99" y="-450" width="140" height="60" as="geometry" />
        </mxCell>
        <mxCell id="jUtSfc8thpbf7o3x55cu-5" value="&lt;font style=&quot;font-size: 12px;&quot;&gt;Begins Reading Aloud&lt;/font&gt;" style="rounded=1;whiteSpace=wrap;html=1;shadow=0;labelBackgroundColor=none;strokeWidth=1;fontFamily=Verdana;fontSize=8;align=center;fillColor=#d5e8d4;strokeColor=#82b366;" vertex="1" parent="1">
          <mxGeometry x="199.99" y="-340" width="140" height="60" as="geometry" />
        </mxCell>
        <mxCell id="jUtSfc8thpbf7o3x55cu-6" value="" style="edgeStyle=orthogonalEdgeStyle;rounded=0;orthogonalLoop=1;jettySize=auto;html=1;" edge="1" parent="1" source="jUtSfc8thpbf7o3x55cu-7" target="jUtSfc8thpbf7o3x55cu-43">
          <mxGeometry relative="1" as="geometry" />
        </mxCell>
        <mxCell id="jUtSfc8thpbf7o3x55cu-7" value="&lt;font style=&quot;font-size: 12px;&quot;&gt;Highlighted Word&lt;/font&gt;" style="rounded=1;whiteSpace=wrap;html=1;shadow=0;labelBackgroundColor=none;strokeWidth=1;fontFamily=Verdana;fontSize=8;align=center;fillColor=#fff2cc;strokeColor=#d6b656;" vertex="1" parent="1">
          <mxGeometry x="199.99" y="-230" width="140" height="60" as="geometry" />
        </mxCell>
        <mxCell id="jUtSfc8thpbf7o3x55cu-8" value="&lt;span style=&quot;color: rgb(28, 28, 30); background-color: transparent;&quot;&gt;&lt;font style=&quot;font-size: 12px;&quot;&gt;AI Verif﻿ies Pro&lt;span class=&quot;ql-cursor&quot;&gt;﻿&lt;/span&gt;nunciation&lt;/font&gt;&lt;/span&gt;" style="rounded=1;whiteSpace=wrap;html=1;shadow=0;labelBackgroundColor=none;strokeWidth=1;fontFamily=Verdana;fontSize=8;align=center;fillColor=#d5e8d4;strokeColor=#82b366;" vertex="1" parent="1">
          <mxGeometry x="200" y="20" width="140" height="60" as="geometry" />
        </mxCell>
        <mxCell id="jUtSfc8thpbf7o3x55cu-9" value="&lt;span style=&quot;color: rgb(28, 28, 30); background-color: transparent;&quot;&gt;&lt;font style=&quot;font-size: 12px;&quot;&gt;AI Verif﻿ies Pro&lt;span style=&quot;&quot; class=&quot;ql-cursor&quot;&gt;﻿&lt;/span&gt;nunciation&lt;/font&gt;&lt;/span&gt;" style="rounded=1;whiteSpace=wrap;html=1;shadow=0;labelBackgroundColor=none;strokeWidth=1;fontFamily=Verdana;fontSize=8;align=center;fillColor=#d5e8d4;strokeColor=#82b366;" vertex="1" parent="1">
          <mxGeometry x="379" y="20" width="140" height="60" as="geometry" />
        </mxCell>
        <mxCell id="jUtSfc8thpbf7o3x55cu-10" value="" style="endArrow=classic;html=1;rounded=0;exitX=0.5;exitY=1;exitDx=0;exitDy=0;entryX=0.5;entryY=0;entryDx=0;entryDy=0;" edge="1" parent="1" source="jUtSfc8thpbf7o3x55cu-1" target="jUtSfc8thpbf7o3x55cu-2">
          <mxGeometry width="50" height="50" relative="1" as="geometry">
            <mxPoint x="259.99" y="-570" as="sourcePoint" />
            <mxPoint x="309.99" y="-620" as="targetPoint" />
          </mxGeometry>
        </mxCell>
        <mxCell id="jUtSfc8thpbf7o3x55cu-11" value="" style="endArrow=classic;html=1;rounded=0;exitX=0.5;exitY=1;exitDx=0;exitDy=0;entryX=0.5;entryY=0;entryDx=0;entryDy=0;" edge="1" parent="1">
          <mxGeometry width="50" height="50" relative="1" as="geometry">
            <mxPoint x="269.77" y="-610" as="sourcePoint" />
            <mxPoint x="269.77" y="-560" as="targetPoint" />
          </mxGeometry>
        </mxCell>
        <mxCell id="jUtSfc8thpbf7o3x55cu-12" value="" style="endArrow=classic;html=1;rounded=0;exitX=0.5;exitY=1;exitDx=0;exitDy=0;entryX=0.5;entryY=0;entryDx=0;entryDy=0;" edge="1" parent="1">
          <mxGeometry width="50" height="50" relative="1" as="geometry">
            <mxPoint x="269.77" y="-500" as="sourcePoint" />
            <mxPoint x="269.77" y="-450" as="targetPoint" />
          </mxGeometry>
        </mxCell>
        <mxCell id="jUtSfc8thpbf7o3x55cu-13" value="" style="endArrow=classic;html=1;rounded=0;exitX=0.5;exitY=1;exitDx=0;exitDy=0;entryX=0.5;entryY=0;entryDx=0;entryDy=0;" edge="1" parent="1">
          <mxGeometry width="50" height="50" relative="1" as="geometry">
            <mxPoint x="269.77" y="-390" as="sourcePoint" />
            <mxPoint x="269.77" y="-340" as="targetPoint" />
          </mxGeometry>
        </mxCell>
        <mxCell id="jUtSfc8thpbf7o3x55cu-14" value="" style="endArrow=classic;html=1;rounded=0;exitX=0.5;exitY=1;exitDx=0;exitDy=0;entryX=0.5;entryY=0;entryDx=0;entryDy=0;" edge="1" parent="1" target="jUtSfc8thpbf7o3x55cu-7">
          <mxGeometry width="50" height="50" relative="1" as="geometry">
            <mxPoint x="269.77" y="-280" as="sourcePoint" />
            <mxPoint x="270" y="-250" as="targetPoint" />
          </mxGeometry>
        </mxCell>
        <mxCell id="jUtSfc8thpbf7o3x55cu-15" value="" style="endArrow=classic;html=1;rounded=0;exitX=0.5;exitY=1;exitDx=0;exitDy=0;entryX=0.5;entryY=0;entryDx=0;entryDy=0;" edge="1" parent="1">
          <mxGeometry width="50" height="50" relative="1" as="geometry">
            <mxPoint x="269.57" y="-170" as="sourcePoint" />
            <mxPoint x="269.57" y="-120" as="targetPoint" />
          </mxGeometry>
        </mxCell>
        <mxCell id="jUtSfc8thpbf7o3x55cu-16" value="" style="endArrow=classic;html=1;rounded=0;entryX=0.5;entryY=0;entryDx=0;entryDy=0;exitX=0.5;exitY=1;exitDx=0;exitDy=0;exitPerimeter=0;" edge="1" parent="1" source="jUtSfc8thpbf7o3x55cu-43">
          <mxGeometry width="50" height="50" relative="1" as="geometry">
            <mxPoint x="270" y="-20" as="sourcePoint" />
            <mxPoint x="269.78" y="20" as="targetPoint" />
          </mxGeometry>
        </mxCell>
        <mxCell id="jUtSfc8thpbf7o3x55cu-17" value="" style="endArrow=classic;html=1;rounded=0;exitX=0.5;exitY=1;exitDx=0;exitDy=0;entryX=0.5;entryY=0;entryDx=0;entryDy=0;" edge="1" parent="1">
          <mxGeometry width="50" height="50" relative="1" as="geometry">
            <mxPoint x="269.57" y="80" as="sourcePoint" />
            <mxPoint x="269.57" y="130" as="targetPoint" />
          </mxGeometry>
        </mxCell>
        <mxCell id="jUtSfc8thpbf7o3x55cu-18" value="" style="endArrow=classic;html=1;rounded=0;exitX=0.5;exitY=1;exitDx=0;exitDy=0;entryX=0.5;entryY=0;entryDx=0;entryDy=0;" edge="1" parent="1">
          <mxGeometry width="50" height="50" relative="1" as="geometry">
            <mxPoint x="448.57" y="80" as="sourcePoint" />
            <mxPoint x="448.57" y="130" as="targetPoint" />
          </mxGeometry>
        </mxCell>
        <mxCell id="jUtSfc8thpbf7o3x55cu-19" value="" style="endArrow=classic;html=1;rounded=0;exitX=0.5;exitY=1;exitDx=0;exitDy=0;entryX=0.5;entryY=0;entryDx=0;entryDy=0;exitPerimeter=0;" edge="1" parent="1" source="jUtSfc8thpbf7o3x55cu-45">
          <mxGeometry width="50" height="50" relative="1" as="geometry">
            <mxPoint x="270" y="240" as="sourcePoint" />
            <mxPoint x="270" y="290" as="targetPoint" />
          </mxGeometry>
        </mxCell>
        <mxCell id="jUtSfc8thpbf7o3x55cu-20" value="" style="endArrow=classic;html=1;rounded=0;exitX=0.5;exitY=1;exitDx=0;exitDy=0;entryX=0.5;entryY=0;entryDx=0;entryDy=0;exitPerimeter=0;" edge="1" parent="1" source="jUtSfc8thpbf7o3x55cu-46">
          <mxGeometry width="50" height="50" relative="1" as="geometry">
            <mxPoint x="449" y="240" as="sourcePoint" />
            <mxPoint x="449" y="290" as="targetPoint" />
          </mxGeometry>
        </mxCell>
        <mxCell id="jUtSfc8thpbf7o3x55cu-21" value="&lt;span style=&quot;background-color: transparent; color: rgb(28, 28, 30);&quot;&gt;&lt;font style=&quot;font-size: 12px;&quot;&gt;Progress Saved - Feedback and Re﻿try&lt;/font&gt;&lt;/span&gt;" style="rounded=1;whiteSpace=wrap;html=1;shadow=0;labelBackgroundColor=none;strokeWidth=1;fontFamily=Verdana;fontSize=8;align=center;fillColor=#d5e8d4;strokeColor=#82b366;" vertex="1" parent="1">
          <mxGeometry x="200" y="290" width="140" height="60" as="geometry" />
        </mxCell>
        <mxCell id="jUtSfc8thpbf7o3x55cu-22" value="&lt;span style=&quot;background-color: transparent; color: rgb(28, 28, 30);&quot;&gt;&lt;font style=&quot;font-size: 12px;&quot;&gt;Progress Saved&amp;nbsp;&lt;/font&gt;&lt;/span&gt;" style="rounded=1;whiteSpace=wrap;html=1;shadow=0;labelBackgroundColor=none;strokeWidth=1;fontFamily=Verdana;fontSize=8;align=center;fillColor=#d5e8d4;strokeColor=#82b366;" vertex="1" parent="1">
          <mxGeometry x="379" y="290" width="140" height="60" as="geometry" />
        </mxCell>
        <mxCell id="jUtSfc8thpbf7o3x55cu-23" value="" style="endArrow=classic;html=1;rounded=0;exitX=0.5;exitY=1;exitDx=0;exitDy=0;entryX=0.5;entryY=0;entryDx=0;entryDy=0;" edge="1" parent="1" source="jUtSfc8thpbf7o3x55cu-22">
          <mxGeometry width="50" height="50" relative="1" as="geometry">
            <mxPoint x="489.57" y="460" as="sourcePoint" />
            <mxPoint x="270.0050000000001" y="410" as="targetPoint" />
            <Array as="points">
              <mxPoint x="450" y="410" />
            </Array>
          </mxGeometry>
        </mxCell>
        <mxCell id="jUtSfc8thpbf7o3x55cu-24" value="" style="endArrow=classic;html=1;rounded=0;entryX=1;entryY=0.5;entryDx=0;entryDy=0;exitX=0.698;exitY=0.197;exitDx=0;exitDy=0;exitPerimeter=0;" edge="1" parent="1" source="jUtSfc8thpbf7o3x55cu-44" target="jUtSfc8thpbf7o3x55cu-7">
          <mxGeometry width="50" height="50" relative="1" as="geometry">
            <mxPoint x="308.7258800000002" y="440.03" as="sourcePoint" />
            <mxPoint x="600" y="-210" as="targetPoint" />
            <Array as="points">
              <mxPoint x="540" y="430" />
              <mxPoint x="540" y="-200" />
            </Array>
          </mxGeometry>
        </mxCell>
        <mxCell id="jUtSfc8thpbf7o3x55cu-25" value="" style="endArrow=classic;html=1;rounded=0;entryX=0;entryY=0.5;entryDx=0;entryDy=0;" edge="1" parent="1" target="jUtSfc8thpbf7o3x55cu-7">
          <mxGeometry width="50" height="50" relative="1" as="geometry">
            <mxPoint x="260" y="410" as="sourcePoint" />
            <mxPoint x="-73.33999999999997" y="-220" as="targetPoint" />
            <Array as="points">
              <mxPoint x="40" y="410" />
              <mxPoint x="40" y="-200" />
            </Array>
          </mxGeometry>
        </mxCell>
        <mxCell id="jUtSfc8thpbf7o3x55cu-26" value="" style="endArrow=classic;html=1;rounded=0;exitX=0.5;exitY=1;exitDx=0;exitDy=0;" edge="1" parent="1" source="jUtSfc8thpbf7o3x55cu-21">
          <mxGeometry width="50" height="50" relative="1" as="geometry">
            <mxPoint x="270" y="350" as="sourcePoint" />
            <mxPoint x="270" y="410" as="targetPoint" />
          </mxGeometry>
        </mxCell>
        <mxCell id="jUtSfc8thpbf7o3x55cu-27" value="" style="endArrow=classic;html=1;rounded=0;exitX=0;exitY=0.5;exitDx=0;exitDy=0;entryX=0;entryY=0.5;entryDx=0;entryDy=0;entryPerimeter=0;" edge="1" parent="1" source="jUtSfc8thpbf7o3x55cu-21" target="jUtSfc8thpbf7o3x55cu-43">
          <mxGeometry width="50" height="50" relative="1" as="geometry">
            <mxPoint x="240" y="200" as="sourcePoint" />
            <mxPoint x="196.6500000000001" y="-75" as="targetPoint" />
            <Array as="points">
              <mxPoint x="140" y="320" />
              <mxPoint x="140" y="-70" />
            </Array>
          </mxGeometry>
        </mxCell>
        <mxCell id="jUtSfc8thpbf7o3x55cu-28" value="" style="endArrow=classic;html=1;rounded=0;entryX=0.5;entryY=0;entryDx=0;entryDy=0;exitX=1;exitY=0.5;exitDx=0;exitDy=0;exitPerimeter=0;" edge="1" parent="1" source="jUtSfc8thpbf7o3x55cu-43" target="jUtSfc8thpbf7o3x55cu-9">
          <mxGeometry width="50" height="50" relative="1" as="geometry">
            <mxPoint x="340" y="-75" as="sourcePoint" />
            <mxPoint x="470" y="30" as="targetPoint" />
            <Array as="points">
              <mxPoint x="450" y="-70" />
            </Array>
          </mxGeometry>
        </mxCell>
        <mxCell id="jUtSfc8thpbf7o3x55cu-29" value="&lt;font style=&quot;font-size: 12px;&quot;&gt;Story completed&lt;/font&gt;" style="rounded=1;whiteSpace=wrap;html=1;shadow=0;labelBackgroundColor=none;strokeWidth=1;fontFamily=Verdana;fontSize=8;align=center;fillColor=#d5e8d4;strokeColor=#82b366;" vertex="1" parent="1">
          <mxGeometry x="90" y="520" width="140" height="60" as="geometry" />
        </mxCell>
        <mxCell id="jUtSfc8thpbf7o3x55cu-30" value="&lt;font style=&quot;font-size: 12px;&quot;&gt;Story incompleted&lt;/font&gt;" style="rounded=1;whiteSpace=wrap;html=1;shadow=0;labelBackgroundColor=none;strokeWidth=1;fontFamily=Verdana;fontSize=8;align=center;fillColor=#d5e8d4;strokeColor=#82b366;" vertex="1" parent="1">
          <mxGeometry x="310" y="520" width="140" height="60" as="geometry" />
        </mxCell>
        <mxCell id="jUtSfc8thpbf7o3x55cu-31" value="" style="endArrow=classic;html=1;rounded=0;exitX=0.5;exitY=1;exitDx=0;exitDy=0;entryX=0.5;entryY=0;entryDx=0;entryDy=0;" edge="1" parent="1">
          <mxGeometry width="50" height="50" relative="1" as="geometry">
            <mxPoint x="160" y="580" as="sourcePoint" />
            <mxPoint x="160" y="630" as="targetPoint" />
          </mxGeometry>
        </mxCell>
        <mxCell id="jUtSfc8thpbf7o3x55cu-32" value="" style="endArrow=classic;html=1;rounded=0;exitX=0.5;exitY=1;exitDx=0;exitDy=0;entryX=0.5;entryY=0;entryDx=0;entryDy=0;" edge="1" parent="1">
          <mxGeometry width="50" height="50" relative="1" as="geometry">
            <mxPoint x="380" y="580" as="sourcePoint" />
            <mxPoint x="380" y="630" as="targetPoint" />
          </mxGeometry>
        </mxCell>
        <mxCell id="jUtSfc8thpbf7o3x55cu-33" value="&lt;span style=&quot;color: rgb(28, 28, 30);&quot;&gt;&lt;font style=&quot;font-size: 12px;&quot;&gt;Parents review statistics (optional)&lt;/font&gt;&lt;/span&gt;" style="rounded=1;whiteSpace=wrap;html=1;shadow=0;labelBackgroundColor=none;strokeWidth=1;fontFamily=Verdana;fontSize=8;align=center;fillColor=#d5e8d4;strokeColor=#82b366;" vertex="1" parent="1">
          <mxGeometry x="90" y="630" width="140" height="60" as="geometry" />
        </mxCell>
        <mxCell id="jUtSfc8thpbf7o3x55cu-34" value="&lt;span style=&quot;color: rgb(28, 28, 30);&quot;&gt;&lt;font style=&quot;font-size: 12px;&quot;&gt;Parents review statistics (optional)&lt;/font&gt;&lt;/span&gt;" style="rounded=1;whiteSpace=wrap;html=1;shadow=0;labelBackgroundColor=none;strokeWidth=1;fontFamily=Verdana;fontSize=8;align=center;fillColor=#d5e8d4;strokeColor=#82b366;" vertex="1" parent="1">
          <mxGeometry x="310" y="630" width="140" height="60" as="geometry" />
        </mxCell>
        <mxCell id="jUtSfc8thpbf7o3x55cu-35" value="" style="endArrow=classic;html=1;rounded=0;exitX=0.5;exitY=1;exitDx=0;exitDy=0;entryX=0;entryY=0.5;entryDx=0;entryDy=0;" edge="1" parent="1" target="jUtSfc8thpbf7o3x55cu-37">
          <mxGeometry width="50" height="50" relative="1" as="geometry">
            <mxPoint x="160" y="690" as="sourcePoint" />
            <mxPoint x="160" y="740" as="targetPoint" />
            <Array as="points">
              <mxPoint x="160" y="750" />
            </Array>
          </mxGeometry>
        </mxCell>
        <mxCell id="jUtSfc8thpbf7o3x55cu-36" value="" style="endArrow=classic;html=1;rounded=0;exitX=0.5;exitY=1;exitDx=0;exitDy=0;entryX=1;entryY=0.5;entryDx=0;entryDy=0;" edge="1" parent="1" target="jUtSfc8thpbf7o3x55cu-37">
          <mxGeometry width="50" height="50" relative="1" as="geometry">
            <mxPoint x="380" y="690" as="sourcePoint" />
            <mxPoint x="380" y="740" as="targetPoint" />
            <Array as="points">
              <mxPoint x="380" y="750" />
            </Array>
          </mxGeometry>
        </mxCell>
        <mxCell id="jUtSfc8thpbf7o3x55cu-37" value="&lt;span style=&quot;color: rgb(28, 28, 30);&quot;&gt;&lt;font style=&quot;font-size: 12px;&quot;&gt;Select o&lt;span class=&quot;ql-cursor&quot;&gt;﻿&lt;/span&gt;ther story to read&lt;/font&gt;&lt;/span&gt;" style="rounded=1;whiteSpace=wrap;html=1;shadow=0;labelBackgroundColor=none;strokeWidth=1;fontFamily=Verdana;fontSize=8;align=center;fillColor=#d5e8d4;strokeColor=#82b366;" vertex="1" parent="1">
          <mxGeometry x="200" y="720" width="140" height="60" as="geometry" />
        </mxCell>
        <mxCell id="jUtSfc8thpbf7o3x55cu-38" value="" style="endArrow=classic;html=1;rounded=0;exitX=0;exitY=0.5;exitDx=0;exitDy=0;exitPerimeter=0;entryX=0.5;entryY=0;entryDx=0;entryDy=0;" edge="1" parent="1" source="jUtSfc8thpbf7o3x55cu-44" target="jUtSfc8thpbf7o3x55cu-29">
          <mxGeometry width="50" height="50" relative="1" as="geometry">
            <mxPoint x="196.67000000000007" y="460" as="sourcePoint" />
            <mxPoint x="160" y="555" as="targetPoint" />
            <Array as="points">
              <mxPoint x="160" y="460" />
            </Array>
          </mxGeometry>
        </mxCell>
        <mxCell id="jUtSfc8thpbf7o3x55cu-39" value="" style="endArrow=classic;html=1;rounded=0;exitX=1;exitY=0.5;exitDx=0;exitDy=0;entryX=0.5;entryY=0;entryDx=0;entryDy=0;exitPerimeter=0;" edge="1" parent="1" source="jUtSfc8thpbf7o3x55cu-44" target="jUtSfc8thpbf7o3x55cu-30">
          <mxGeometry width="50" height="50" relative="1" as="geometry">
            <mxPoint x="342.34000000000015" y="460" as="sourcePoint" />
            <mxPoint x="379" y="555" as="targetPoint" />
            <Array as="points">
              <mxPoint x="379" y="460" />
            </Array>
          </mxGeometry>
        </mxCell>
        <mxCell id="jUtSfc8thpbf7o3x55cu-40" value="&lt;font style=&quot;font-size: 16px;&quot;&gt;True&lt;/font&gt;" style="text;html=1;align=center;verticalAlign=middle;whiteSpace=wrap;rounded=0;" vertex="1" parent="1">
          <mxGeometry x="170" y="435" width="60" height="30" as="geometry" />
        </mxCell>
        <mxCell id="jUtSfc8thpbf7o3x55cu-41" value="&lt;font style=&quot;font-size: 16px;&quot;&gt;False&lt;/font&gt;" style="text;html=1;align=center;verticalAlign=middle;whiteSpace=wrap;rounded=0;" vertex="1" parent="1">
          <mxGeometry x="330" y="435" width="60" height="30" as="geometry" />
        </mxCell>
        <mxCell id="jUtSfc8thpbf7o3x55cu-42" value="&lt;font style=&quot;font-size: 16px;&quot;&gt;True&lt;/font&gt;" style="text;html=1;align=center;verticalAlign=middle;whiteSpace=wrap;rounded=0;" vertex="1" parent="1">
          <mxGeometry x="350" y="-104" width="60" height="30" as="geometry" />
        </mxCell>
        <mxCell id="jUtSfc8thpbf7o3x55cu-43" value="&lt;span style=&quot;font-family: Verdana;&quot;&gt;&lt;font style=&quot;font-size: 10px;&quot;&gt;Child Pronounces the Word&lt;/font&gt;&lt;/span&gt;" style="strokeWidth=2;html=1;shape=mxgraph.flowchart.decision;whiteSpace=wrap;fillColor=#e1d5e7;strokeColor=#9673a6;" vertex="1" parent="1">
          <mxGeometry x="219.99" y="-120" width="100" height="100" as="geometry" />
        </mxCell>
        <mxCell id="jUtSfc8thpbf7o3x55cu-44" value="&lt;span style=&quot;font-family: Verdana;&quot;&gt;&lt;font style=&quot;font-size: 10px;&quot;&gt;Continues reading&lt;/font&gt;&lt;/span&gt;" style="strokeWidth=2;html=1;shape=mxgraph.flowchart.decision;whiteSpace=wrap;fillColor=#e1d5e7;strokeColor=#9673a6;" vertex="1" parent="1">
          <mxGeometry x="220" y="410" width="100" height="100" as="geometry" />
        </mxCell>
        <mxCell id="jUtSfc8thpbf7o3x55cu-45" value="Incorrect" style="strokeWidth=2;html=1;shape=mxgraph.flowchart.start_2;whiteSpace=wrap;fillColor=#dae8fc;strokeColor=#6c8ebf;" vertex="1" parent="1">
          <mxGeometry x="219.99" y="130" width="100" height="100" as="geometry" />
        </mxCell>
        <mxCell id="jUtSfc8thpbf7o3x55cu-46" value="Correct" style="strokeWidth=2;html=1;shape=mxgraph.flowchart.start_2;whiteSpace=wrap;fillColor=#dae8fc;strokeColor=#6c8ebf;" vertex="1" parent="1">
          <mxGeometry x="399" y="130" width="100" height="100" as="geometry" />
        </mxCell>
        <mxCell id="jUtSfc8thpbf7o3x55cu-210" value="&lt;font style=&quot;font-size: 12px;&quot;&gt;Access index page&lt;/font&gt;" style="rounded=1;whiteSpace=wrap;html=1;shadow=0;labelBackgroundColor=none;strokeWidth=1;fontFamily=Verdana;fontSize=8;align=center;fillColor=#d5e8d4;strokeColor=#82b366;" vertex="1" parent="1">
          <mxGeometry x="-840" y="-619" width="140" height="60" as="geometry" />
        </mxCell>
        <mxCell id="jUtSfc8thpbf7o3x55cu-211" value="&lt;font style=&quot;font-size: 12px;&quot;&gt;Selects a Story&lt;/font&gt;" style="rounded=1;whiteSpace=wrap;html=1;shadow=0;labelBackgroundColor=none;strokeWidth=1;fontFamily=Verdana;fontSize=8;align=center;fillColor=#d5e8d4;strokeColor=#82b366;" vertex="1" parent="1">
          <mxGeometry x="-840" y="-509" width="140" height="60" as="geometry" />
        </mxCell>
        <mxCell id="jUtSfc8thpbf7o3x55cu-212" value="&lt;font style=&quot;font-size: 12px;&quot;&gt;Begins Reading Aloud&lt;/font&gt;" style="rounded=1;whiteSpace=wrap;html=1;shadow=0;labelBackgroundColor=none;strokeWidth=1;fontFamily=Verdana;fontSize=8;align=center;fillColor=#d5e8d4;strokeColor=#82b366;" vertex="1" parent="1">
          <mxGeometry x="-840" y="-399" width="140" height="60" as="geometry" />
        </mxCell>
        <mxCell id="jUtSfc8thpbf7o3x55cu-213" value="" style="edgeStyle=orthogonalEdgeStyle;rounded=0;orthogonalLoop=1;jettySize=auto;html=1;exitX=0.5;exitY=1;exitDx=0;exitDy=0;entryX=0.5;entryY=0;entryDx=0;entryDy=0;entryPerimeter=0;" edge="1" parent="1" source="jUtSfc8thpbf7o3x55cu-229" target="jUtSfc8thpbf7o3x55cu-226">
          <mxGeometry relative="1" as="geometry">
            <Array as="points">
              <mxPoint x="-769.99" y="-80" />
              <mxPoint x="-769.99" y="-80" />
            </Array>
          </mxGeometry>
        </mxCell>
        <mxCell id="jUtSfc8thpbf7o3x55cu-214" value="&lt;font style=&quot;font-size: 12px;&quot;&gt;Highlighted Word&lt;/font&gt;" style="rounded=1;whiteSpace=wrap;html=1;shadow=0;labelBackgroundColor=none;strokeWidth=1;fontFamily=Verdana;fontSize=8;align=center;fillColor=#fff2cc;strokeColor=#d6b656;" vertex="1" parent="1">
          <mxGeometry x="-840" y="-289" width="140" height="60" as="geometry" />
        </mxCell>
        <mxCell id="jUtSfc8thpbf7o3x55cu-215" value="" style="endArrow=classic;html=1;rounded=0;exitX=0.5;exitY=1;exitDx=0;exitDy=0;entryX=0.5;entryY=0;entryDx=0;entryDy=0;" edge="1" parent="1">
          <mxGeometry width="50" height="50" relative="1" as="geometry">
            <mxPoint x="-770.22" y="-559" as="sourcePoint" />
            <mxPoint x="-770.22" y="-509" as="targetPoint" />
          </mxGeometry>
        </mxCell>
        <mxCell id="jUtSfc8thpbf7o3x55cu-216" value="" style="endArrow=classic;html=1;rounded=0;exitX=0.5;exitY=1;exitDx=0;exitDy=0;entryX=0.5;entryY=0;entryDx=0;entryDy=0;" edge="1" parent="1">
          <mxGeometry width="50" height="50" relative="1" as="geometry">
            <mxPoint x="-770.22" y="-449" as="sourcePoint" />
            <mxPoint x="-770.22" y="-399" as="targetPoint" />
          </mxGeometry>
        </mxCell>
        <mxCell id="jUtSfc8thpbf7o3x55cu-217" value="" style="endArrow=classic;html=1;rounded=0;exitX=0.5;exitY=1;exitDx=0;exitDy=0;entryX=0.5;entryY=0;entryDx=0;entryDy=0;" edge="1" parent="1" target="jUtSfc8thpbf7o3x55cu-214">
          <mxGeometry width="50" height="50" relative="1" as="geometry">
            <mxPoint x="-770.22" y="-339" as="sourcePoint" />
            <mxPoint x="-769.99" y="-309" as="targetPoint" />
          </mxGeometry>
        </mxCell>
        <mxCell id="jUtSfc8thpbf7o3x55cu-218" value="" style="endArrow=classic;html=1;rounded=0;exitX=0.5;exitY=1;exitDx=0;exitDy=0;" edge="1" parent="1" source="jUtSfc8thpbf7o3x55cu-214" target="jUtSfc8thpbf7o3x55cu-229">
          <mxGeometry width="50" height="50" relative="1" as="geometry">
            <mxPoint x="-770.4200000000001" y="-109" as="sourcePoint" />
            <mxPoint x="-770.4200000000001" y="-59" as="targetPoint" />
          </mxGeometry>
        </mxCell>
        <mxCell id="jUtSfc8thpbf7o3x55cu-219" value="" style="endArrow=classic;html=1;rounded=0;entryX=0.5;entryY=0;entryDx=0;entryDy=0;exitX=0.5;exitY=1;exitDx=0;exitDy=0;exitPerimeter=0;entryPerimeter=0;" edge="1" parent="1" source="jUtSfc8thpbf7o3x55cu-226" target="jUtSfc8thpbf7o3x55cu-227">
          <mxGeometry width="50" height="50" relative="1" as="geometry">
            <mxPoint x="-769.99" y="90" as="sourcePoint" />
            <mxPoint x="-770.21" y="130" as="targetPoint" />
          </mxGeometry>
        </mxCell>
        <mxCell id="jUtSfc8thpbf7o3x55cu-220" value="" style="endArrow=classic;html=1;rounded=0;exitX=0.5;exitY=1;exitDx=0;exitDy=0;exitPerimeter=0;entryX=0.5;entryY=0;entryDx=0;entryDy=0;entryPerimeter=0;" edge="1" parent="1" source="jUtSfc8thpbf7o3x55cu-227" target="jUtSfc8thpbf7o3x55cu-231">
          <mxGeometry width="50" height="50" relative="1" as="geometry">
            <mxPoint x="-769.99" y="240" as="sourcePoint" />
            <mxPoint x="-769.99" y="410" as="targetPoint" />
          </mxGeometry>
        </mxCell>
        <mxCell id="jUtSfc8thpbf7o3x55cu-221" value="" style="endArrow=classic;html=1;rounded=0;entryX=0.5;entryY=0;entryDx=0;entryDy=0;entryPerimeter=0;exitX=0.5;exitY=1;exitDx=0;exitDy=0;exitPerimeter=0;" edge="1" parent="1" source="jUtSfc8thpbf7o3x55cu-228" target="jUtSfc8thpbf7o3x55cu-231">
          <mxGeometry width="50" height="50" relative="1" as="geometry">
            <mxPoint x="-589.99" y="350" as="sourcePoint" />
            <mxPoint x="-769.9849999999999" y="410" as="targetPoint" />
            <Array as="points">
              <mxPoint x="-589.99" y="270" />
            </Array>
          </mxGeometry>
        </mxCell>
        <mxCell id="jUtSfc8thpbf7o3x55cu-222" value="" style="endArrow=classic;html=1;rounded=0;entryX=1;entryY=0.5;entryDx=0;entryDy=0;exitX=1;exitY=0.5;exitDx=0;exitDy=0;exitPerimeter=0;" edge="1" parent="1" source="jUtSfc8thpbf7o3x55cu-231" target="jUtSfc8thpbf7o3x55cu-212">
          <mxGeometry width="50" height="50" relative="1" as="geometry">
            <mxPoint x="-750.1899999999998" y="539.6999999999998" as="sourcePoint" />
            <mxPoint x="-439.99" y="-100" as="targetPoint" />
            <Array as="points">
              <mxPoint x="-499.99" y="320" />
              <mxPoint x="-499.99" y="-369" />
            </Array>
          </mxGeometry>
        </mxCell>
        <mxCell id="jUtSfc8thpbf7o3x55cu-223" value="" style="endArrow=classic;html=1;rounded=0;entryX=0.5;entryY=0;entryDx=0;entryDy=0;exitX=1;exitY=0.5;exitDx=0;exitDy=0;exitPerimeter=0;entryPerimeter=0;" edge="1" parent="1" source="jUtSfc8thpbf7o3x55cu-226" target="jUtSfc8thpbf7o3x55cu-228">
          <mxGeometry width="50" height="50" relative="1" as="geometry">
            <mxPoint x="-699.99" y="35" as="sourcePoint" />
            <mxPoint x="-590.99" y="130" as="targetPoint" />
            <Array as="points">
              <mxPoint x="-589.99" y="40" />
            </Array>
          </mxGeometry>
        </mxCell>
        <mxCell id="jUtSfc8thpbf7o3x55cu-224" value="&lt;font color=&quot;#1c1c1e&quot;&gt;&lt;span style=&quot;font-size: 12px;&quot;&gt;User finishes continues reading the sotries until it finishes&lt;/span&gt;&lt;/font&gt;" style="rounded=1;whiteSpace=wrap;html=1;shadow=0;labelBackgroundColor=none;strokeWidth=1;fontFamily=Verdana;fontSize=8;align=center;fillColor=#d5e8d4;strokeColor=#82b366;" vertex="1" parent="1">
          <mxGeometry x="-839.99" y="450" width="140" height="60" as="geometry" />
        </mxCell>
        <mxCell id="jUtSfc8thpbf7o3x55cu-225" value="&lt;font style=&quot;font-size: 16px;&quot;&gt;Yes&lt;/font&gt;" style="text;html=1;align=center;verticalAlign=middle;whiteSpace=wrap;rounded=0;" vertex="1" parent="1">
          <mxGeometry x="-689.99" y="6" width="60" height="30" as="geometry" />
        </mxCell>
        <mxCell id="jUtSfc8thpbf7o3x55cu-226" value="&lt;span style=&quot;font-family: Verdana;&quot;&gt;&lt;font style=&quot;font-size: 10px;&quot;&gt;Does the pronounced word matches the actual word?&lt;/font&gt;&lt;/span&gt;" style="strokeWidth=2;html=1;shape=mxgraph.flowchart.decision;whiteSpace=wrap;fillColor=#e1d5e7;strokeColor=#9673a6;" vertex="1" parent="1">
          <mxGeometry x="-820" y="-10" width="100" height="100" as="geometry" />
        </mxCell>
        <mxCell id="jUtSfc8thpbf7o3x55cu-227" value="Incorrect message" style="strokeWidth=2;html=1;shape=mxgraph.flowchart.start_2;whiteSpace=wrap;fillColor=#dae8fc;strokeColor=#6c8ebf;" vertex="1" parent="1">
          <mxGeometry x="-820" y="130" width="100" height="100" as="geometry" />
        </mxCell>
        <mxCell id="jUtSfc8thpbf7o3x55cu-228" value="Correct message" style="strokeWidth=2;html=1;shape=mxgraph.flowchart.start_2;whiteSpace=wrap;fillColor=#dae8fc;strokeColor=#6c8ebf;" vertex="1" parent="1">
          <mxGeometry x="-640.99" y="130" width="100" height="100" as="geometry" />
        </mxCell>
        <mxCell id="jUtSfc8thpbf7o3x55cu-229" value="&lt;font style=&quot;font-size: 12px;&quot;&gt;Press Speak button&lt;/font&gt;" style="rounded=1;whiteSpace=wrap;html=1;shadow=0;labelBackgroundColor=none;strokeWidth=1;fontFamily=Verdana;fontSize=8;align=center;fillColor=#d5e8d4;strokeColor=#82b366;" vertex="1" parent="1">
          <mxGeometry x="-840" y="-189" width="140" height="60" as="geometry" />
        </mxCell>
        <mxCell id="jUtSfc8thpbf7o3x55cu-230" value="&lt;font style=&quot;font-size: 12px;&quot;&gt;Web Speech API regognises and returns the word&lt;/font&gt;" style="rounded=1;whiteSpace=wrap;html=1;shadow=0;labelBackgroundColor=none;strokeWidth=1;fontFamily=Verdana;fontSize=8;align=center;fillColor=#d5e8d4;strokeColor=#82b366;" vertex="1" parent="1">
          <mxGeometry x="-840" y="-90" width="140" height="60" as="geometry" />
        </mxCell>
        <mxCell id="jUtSfc8thpbf7o3x55cu-231" value="&lt;span style=&quot;font-family: Verdana;&quot;&gt;&lt;font style=&quot;font-size: 10px;&quot;&gt;Are there more higlighted words?&lt;/font&gt;&lt;/span&gt;" style="strokeWidth=2;html=1;shape=mxgraph.flowchart.decision;whiteSpace=wrap;fillColor=#e1d5e7;strokeColor=#9673a6;" vertex="1" parent="1">
          <mxGeometry x="-819.99" y="270" width="100" height="100" as="geometry" />
        </mxCell>
        <mxCell id="jUtSfc8thpbf7o3x55cu-232" value="&lt;font style=&quot;font-size: 16px;&quot;&gt;Yes&lt;/font&gt;" style="text;html=1;align=center;verticalAlign=middle;whiteSpace=wrap;rounded=0;" vertex="1" parent="1">
          <mxGeometry x="-729.99" y="295" width="60" height="30" as="geometry" />
        </mxCell>
        <mxCell id="jUtSfc8thpbf7o3x55cu-233" value="&lt;font style=&quot;font-size: 16px;&quot;&gt;No&lt;/font&gt;" style="text;html=1;align=center;verticalAlign=middle;whiteSpace=wrap;rounded=0;" vertex="1" parent="1">
          <mxGeometry x="-759.99" y="90" width="60" height="30" as="geometry" />
        </mxCell>
        <mxCell id="jUtSfc8thpbf7o3x55cu-234" value="" style="endArrow=classic;html=1;rounded=0;exitX=0.5;exitY=1;exitDx=0;exitDy=0;exitPerimeter=0;" edge="1" parent="1" source="jUtSfc8thpbf7o3x55cu-231">
          <mxGeometry width="50" height="50" relative="1" as="geometry">
            <mxPoint x="-759.99" y="80" as="sourcePoint" />
            <mxPoint x="-769.99" y="450" as="targetPoint" />
          </mxGeometry>
        </mxCell>
      </root>
    </mxGraphModel>
  </diagram>
</mxfile>
